<?xml version="1.0" encoding="UTF-8" standalone="no"?>
<svg
   xmlns:dc="http://purl.org/dc/elements/1.1/"
   xmlns:cc="http://creativecommons.org/ns#"
   xmlns:rdf="http://www.w3.org/1999/02/22-rdf-syntax-ns#"
   xmlns:svg="http://www.w3.org/2000/svg"
   xmlns="http://www.w3.org/2000/svg"
   xmlns:xlink="http://www.w3.org/1999/xlink"
   xmlns:sodipodi="http://sodipodi.sourceforge.net/DTD/sodipodi-0.dtd"
   xmlns:inkscape="http://www.inkscape.org/namespaces/inkscape"
   version="1.2"
   width="8.1195498"
   height="17.808216"
   viewBox="0 0 1.304 2.8600001"
   id="svg2"
   inkscape:version="0.48.5 r10040"
   sodipodi:docname="demi-soupir pointé.svg">
  <metadata
     id="metadata88">
    <rdf:RDF>
      <cc:Work
         rdf:about="">
        <dc:format>image/svg+xml</dc:format>
        <dc:type
           rdf:resource="http://purl.org/dc/dcmitype/StillImage" />
        <dc:title></dc:title>
        <cc:license
           rdf:resource="http://creativecommons.org/licenses/publicdomain/" />
      </cc:Work>
      <cc:License
         rdf:about="http://creativecommons.org/licenses/publicdomain/">
        <cc:permits
           rdf:resource="http://creativecommons.org/ns#Reproduction" />
        <cc:permits
           rdf:resource="http://creativecommons.org/ns#Distribution" />
        <cc:permits
           rdf:resource="http://creativecommons.org/ns#DerivativeWorks" />
      </cc:License>
    </rdf:RDF>
  </metadata>
  <defs
     id="defs86" />
  <sodipodi:namedview
     pagecolor="#ffffff"
     bordercolor="#666666"
     borderopacity="1"
     objecttolerance="10"
     gridtolerance="10"
     guidetolerance="10"
     inkscape:pageopacity="0"
     inkscape:pageshadow="2"
     inkscape:window-width="1920"
     inkscape:window-height="1018"
     id="namedview84"
     showgrid="false"
     fit-margin-top="0"
     fit-margin-left="0"
     fit-margin-right="0"
     fit-margin-bottom="0"
     inkscape:zoom="4"
     inkscape:cx="126.38557"
     inkscape:cy="-11.861285"
     inkscape:window-x="-8"
     inkscape:window-y="-8"
     inkscape:window-maximized="1"
     inkscape:current-layer="svg2" />
  <!-- Page: 1/1 -->
  <a
     id="a64"
     transform="translate(-48.3243,-5.8453001)">
    <path
       transform="matrix(0.004,0,0,-0.004,48.4283,6.6653)"
       d="m 66,-500 101,327 c -34,-12 -70,-23 -106,-23 -46,0 -87,33 -87,79 0,40 32,72 72,72 25,0 49,-15 57,-39 10,-28 5,-59 34,-59 16,0 55,51 60,68 L 243,76 C 209,64 175,54 139,54 93,54 52,87 52,133 c 0,40 33,72 73,72 25,0 48,-15 56,-39 10,-28 5,-59 34,-59 15,0 50,49 57,63 6,12 23,12 28,0 L 121,-500 c -8,-7 -17,-10 -27,-10 -10,0 -20,3 -28,10 z"
       id="path66"
       inkscape:connector-curvature="0"
       style="fill:currentColor" />
  </a>
</svg>
